#!OML:ASF G:\JayActor3\Patient Classification 1\Patient 1\Session 5\male.ASF
:FULLY-SPECIFIED
:DEGREES
991
root 55.124 15.3067 -4.83086 222.973 -85.3975 -205.359
lowerback 33.5666 0.267396 -0.0436974
upperback 7.07637 -0.677492 -1.65228
thorax -9.35538 -0.632706 -1.41885
lowerneck 4.19864 0.866782 1.62448
upperneck -17.9852 1.15993 0.648617
head -6.12751 0.255311 -0.124466
rclavicle -1.48095e-014 -8.84592e-015
rhumerus -26.8266 4.79884 -89.7172
rradius 37.558
rwrist -3.89308
rhand -20.5598 -6.1855
rfingers 7.12502
rthumb 5.7994 -36.0861
lclavicle -1.48095e-014 -8.84592e-015
lhumerus -29.014 -8.0349 87.6896
lradius 35.7377
lwrist 24.0954
lhand -20.9012 9.92029
lfingers 7.12502
lthumb 5.46974 39.8297
rfemur -39.8583 4.1198 22.3062
rtibia 58.2625
rfoot -33.6159 -16.2261
rtoes -16.5147
lfemur -54.0901 -0.108878 -23.4217
ltibia 29.3112
lfoot -3.47857 5.70651
ltoes -7.28413
992
root 55.2398 15.3002 -4.85196 223.81 -85.48 -206.24
lowerback 33.6022 0.234651 -0.036265
upperback 7.0963 -0.717308 -1.64603
thorax -9.34797 -0.651861 -1.40113
lowerneck 4.18266 0.85513 1.63551
upperneck -17.9363 1.14815 0.665139
head -6.1094 0.24883 -0.120241
rclavicle 7.85199e-015 6.06293e-015
rhumerus -26.7657 4.7703 -89.7113
rradius 37.5815
rwrist -3.88958
rhand -20.6046 -6.13412
rfingers 7.12502
rthumb 5.75609 -36.0359
lclavicle 7.85199e-015 6.06293e-015
lhumerus -28.9744 -8.08971 87.7299
lradius 35.7032
lwrist 24.0533
lhand -20.8963 9.93719
lfingers 7.12502
lthumb 5.47449 39.8465
rfemur -40.0844 4.00382 22.4247
rtibia 57.9459
rfoot -33.829 -16.2234
rtoes -15.1266
lfemur -54.0249 -0.14205 -23.3442
ltibia 28.604
lfoot -3.94639 5.84206
ltoes -7.66674
993
root 55.3556 15.294 -4.87378 224.821 -85.5796 -207.267
lowerback 33.5973 0.197654 -0.0279867
upperback 7.11585 -0.759977 -1.63667
thorax -9.32546 -0.671831 -1.3798
lowerneck 4.14791 0.839761 1.6441
upperneck -17.866 1.13289 0.695807
head -6.08142 0.24019 -0.110832
rclavicle 3.47873e-015 8.34896e-015
rhumerus -26.7073 4.72001 -89.702
rradius 37.5989
rwrist -3.88665
rhand -20.6434 -6.10009
rfingers 7.12502
rthumb 5.71867 -36.0029
lclavicle 3.47873e-015 8.34896e-015
lhumerus -28.9258 -8.14336 87.769
lradius 35.6578
lwrist 23.9829
lhand -20.8802 9.95031
lfingers 7.12502
lthumb 5.49001 39.8592
rfemur -40.327 3.92529 22.5574
rtibia 57.6191
rfoot -34.0441 -16.3506
rtoes -13.7792
lfemur -53.9926 -0.182145 -23.2695
ltibia 27.9179
lfoot -4.46599 6.00207
ltoes -7.98019
994
root 55.4712 15.2875 -4.89633 225.85 -85.6966 -208.279
lowerback 33.5522 0.15805 -0.0172771
upperback 7.13491 -0.802574 -1.62062
thorax -9.28792 -0.691344 -1.35305
lowerneck 4.0917 0.82436 1.65135
upperneck -17.786 1.11809 0.73577
head -6.04675 0.231246 -0.0982068
rclavicle -1.8487e-014 -1.90833e-014
rhumerus -26.6483 4.66592 -89.6916
rradius 37.6133
rwrist -3.89257
rhand -20.6748 -6.07261
rfingers 7.12502
rthumb 5.6883 -35.9763
lclavicle -1.8487e-014 -1.90833e-014
lhumerus -28.8677 -8.18415 87.8046
lradius 35.6098
lwrist 23.895
lhand -20.8527 9.97603
lfingers 7.12502
lthumb 5.51657 39.8842
rfemur -40.6063 3.90742 22.7078
rtibia 57.3186
rfoot -34.2237 -16.5937
rtoes -12.5729
lfemur -54.0089 -0.221569 -23.1843
ltibia 27.2731
lfoot -5.04036 6.18633
ltoes -8.28454
995
root 55.5863 15.2805 -4.91949 226.869 -85.8298 -209.254
lowerback 33.4776 0.117107 0.0015603
upperback 7.15128 -0.842038 -1.59934
thorax -9.24184 -0.709122 -1.32661
lowerneck 4.03049 0.810388 1.65447
upperneck -17.7107 1.10581 0.784172
head -6.01278 0.223014 -0.0823887
rclavicle -5.96354e-016 5.76476e-015
rhumerus -26.5965 4.61013 -89.6805
rradius 37.6299
rwrist -3.9069
rhand -20.692 -6.06715
rfingers 7.12502
rthumb 5.67177 -35.9712
lclavicle -5.96354e-016 5.76476e-015
lhumerus -28.8137 -8.22072 87.837
lradius 35.5746
lwrist 23.8121
lhand -20.8186 9.98214
lfingers 7.12502
lthumb 5.54953 39.8895
rfemur -40.9463 3.95952 22.8638
rtibia 57.087
rfoot -34.3168 -16.9204
rtoes -11.5987
lfemur -54.0775 -0.252823 -23.0928
ltibia 26.6921
lfoot -5.67313 6.37928
ltoes -8.578
996
root 55.7008 15.274 -4.94302 227.722 -85.9759 -210.048
lowerback 33.3963 0.0758679 0.0354808
upperback 7.16366 -0.876041 -1.57632
thorax -9.19759 -0.72442 -1.30854
lowerneck 3.96962 0.800904 1.66248
upperneck -17.656 1.09968 0.832482
head -5.98534 0.216893 -0.0678163
rclavicle -4.37326e-015 -3.97569e-016
rhumerus -26.5543 4.55656 -89.6761
rradius 37.6527
rwrist -3.92982
rhand -20.6943 -6.07757
rfingers 7.12502
rthumb 5.66949 -35.9817
lclavicle -4.37326e-015 -3.97569e-016
lhumerus -28.7652 -8.25404 87.862
lradius 35.551
lwrist 23.7512
lhand -20.7793 9.97917
lfingers 7.12502
lthumb 5.58747 39.8855
rfemur -41.3701 4.09161 23.0144
rtibia 56.9591
rfoot -34.3051 -17.2592
rtoes -10.8271
lfemur -54.1914 -0.261714 -22.9949
ltibia 26.2001
lfoot -6.36071 6.566
ltoes -8.88022
997
root 55.814 15.2678 -4.96646 228.413 -86.131 -210.678
lowerback 33.3268 0.0350044 0.0840008
upperback 7.17236 -0.904591 -1.55084
thorax -9.16186 -0.73743 -1.29767
lowerneck 3.9242 0.79361 1.67301
upperneck -17.6346 1.09578 0.87481
head -5.97103 0.211308 -0.0557528
rclavicle -9.64106e-015 -8.34896e-015
rhumerus -26.5303 4.51789 -89.6759
rradius 37.6888
rwrist -3.9587
rhand -20.6863 -6.08328
rfingers 7.12502
rthumb 5.6772 -35.9872
lclavicle -9.64106e-015 -8.34896e-015
lhumerus -28.7333 -8.28726 87.8851
lradius 35.5483
lwrist 23.7224
lhand -20.7421 9.9688
lfingers 7.12502
lthumb 5.62335 39.8742
rfemur -41.8676 4.2753 23.1536
rtibia 56.9429
rfoot -34.1909 -17.5649
rtoes -10.2396
lfemur -54.3379 -0.234687 -22.9118
ltibia 25.8189
lfoot -7.10184 6.72704
ltoes -9.16957
998
root 55.9256 15.2623 -4.98935 228.993 -86.2896 -211.211
lowerback 33.2837 -0.00710861 0.146717
upperback 7.17586 -0.93074 -1.52703
thorax -9.14216 -0.749639 -1.29686
lowerneck 3.90451 0.789245 1.68937
upperneck -17.6442 1.09486 0.903489
head -5.97079 0.207138 -0.049255
rclavicle -1.82882e-014 -3.97569e-015
rhumerus -26.5284 4.49901 -89.6814
rradius 37.733
rwrist -3.99018
rhand -20.6673 -6.08525
rfingers 7.12502
rthumb 5.69562 -35.9887
lclavicle -1.82882e-014 -3.97569e-015
lhumerus -28.7259 -8.32556 87.9067
lradius 35.5676
lwrist 23.7315
lhand -20.7119 9.93813
lfingers 7.12502
lthumb 5.65249 39.8427
rfemur -42.4171 4.47538 23.2762
rtibia 57.021
rfoot -34.003 -17.7996
rtoes -9.75381
lfemur -54.5028 -0.157894 -22.8742
ltibia 25.5663
lfoot -7.87751 6.84576
ltoes -9.37197
999
root 56.0352 15.2582 -5.01129 229.585 -86.4451 -211.777
lowerback 33.2737 -0.0530952 0.215596
upperback 7.17768 -0.961142 -1.50636
thorax -9.13736 -0.764195 -1.30077
lowerneck 3.90814 0.789326 1.69677
upperneck -17.6819 1.09897 0.927394
head -5.98343 0.205732 -0.0431698
rclavicle 3.8763e-015 1.49089e-014
rhumerus -26.5435 4.51167 -89.6927
rradius 37.784
rwrist -4.02238
rhand -20.6433 -6.08005
rfingers 7.12502
rthumb 5.71874 -35.9829
lclavicle 3.8763e-015 1.49089e-014
lhumerus -28.7383 -8.35345 87.929
lradius 35.6008
lwrist 23.7683
lhand -20.6901 9.92093
lfingers 7.12502
lthumb 5.67353 39.825
rfemur -42.979 4.65184 23.3813
rtibia 57.1527
rfoot -33.7722 -17.9503
rtoes -9.30706
lfemur -54.6802 -0.035305 -22.8922
ltibia 25.4594
lfoot -8.61496 6.91459
ltoes -9.46162
1000
root 56.1426 15.2553 -5.03198 230.321 -86.5934 -212.514
lowerback 33.2972 -0.102855 0.287921
upperback 7.17739 -0.99673 -1.49136
thorax -9.14819 -0.781461 -1.31027
lowerneck 3.93339 0.789739 1.70364
upperneck -17.7343 1.10293 0.943139
head -6.00443 0.204638 -0.0396485
rclavicle 6.75868e-015 2.28602e-015
rhumerus -26.5743 4.54306 -89.7057
rradius 37.8293
rwrist -4.05078
rhand -20.6157 -6.05713
rfingers 7.12502
rthumb 5.74544 -35.9592
lclavicle 6.75868e-015 2.28602e-015
lhumerus -28.7783 -8.38972 87.9533
lradius 35.6458
lwrist 23.8344
lhand -20.6799 9.92405
lfingers 7.12502
lthumb 5.68338 39.8278
rfemur -43.5122 4.77242 23.4743
rtibia 57.295
rfoot -33.5305 -18.0374
rtoes -8.86631
lfemur -54.8694 0.128179 -22.9747
ltibia 25.5146
lfoot -9.25476 6.92383
ltoes -9.50798
1001
root 56.2482 15.2538 -5.05136 231.437 -86.7334 -213.659
lowerback 33.3443 -0.157562 0.354029
upperback 7.17634 -1.04169 -1.48075
thorax -9.16924 -0.803145 -1.31732
lowerneck 3.97605 0.787602 1.70648
upperneck -17.7859 1.10295 0.953214
head -6.02816 0.202491 -0.0370772
rclavicle 4.57205e-015 1.28216e-014
rhumerus -26.6187 4.59337 -89.7149
rradius 37.8653
rwrist -4.07623
rhand -20.5839 -6.04023
rfingers 7.12502
rthumb 5.77609 -35.9415
lclavicle 4.57205e-015 1.28216e-014
lhumerus -28.8366 -8.41892 87.984
lradius 35.6891
lwrist 23.8999
lhand -20.6879 9.91457
lfingers 7.12502
lthumb 5.67566 39.8186
rfemur -43.9958 4.81861 23.5545
rtibia 57.4185
rfoot -33.2794 -18.0888
rtoes -8.4544
lfemur -55.0782 0.309039 -23.1133
ltibia 25.7584
lfoot -9.72717 6.86528
ltoes -9.5177
1002
root 56.3522 15.2529 -5.06938 233.029 -86.8676 -215.304
lowerback 33.4049 -0.218034 0.412699
upperback 7.18007 -1.09731 -1.47236
thorax -9.19052 -0.829896 -1.31858
lowerneck 4.01895 0.782066 1.70105
upperneck -17.8225 1.09815 0.965603
head -6.04728 0.198827 -0.032106
rclavicle -2.82274e-014 -3.74709e-014
rhumerus -26.6607 4.66038 -89.7163
rradius 37.8772
rwrist -4.10119
rhand -20.5605 -6.02438
rfingers 7.12502
rthumb 5.7987 -35.925
lclavicle -2.82274e-014 -3.74709e-014
lhumerus -28.9008 -8.4446 88.0208
lradius 35.7237
lwrist 23.9544
lhand -20.707 9.93533
lfingers 7.12502
lthumb 5.65724 39.8398
rfemur -44.423 4.78782 23.629
rtibia 57.5164
rfoot -33.0252 -18.1107
rtoes -8.06504
lfemur -55.3162 0.480504 -23.2814
ltibia 26.2218
lfoot -10.0023 6.76562
ltoes -9.58287
